<?xml version="1.0" encoding="utf-8" standalone="no"?>
<!DOCTYPE svg PUBLIC "-//W3C//DTD SVG 1.1//EN"
  "http://www.w3.org/Graphics/SVG/1.1/DTD/svg11.dtd">
<svg xmlns:xlink="http://www.w3.org/1999/xlink" width="893.182812pt" height="377.39625pt" viewBox="0 0 893.182812 377.39625" xmlns="http://www.w3.org/2000/svg" version="1.1">
 <metadata>
  <rdf:RDF xmlns:dc="http://purl.org/dc/elements/1.1/" xmlns:cc="http://creativecommons.org/ns#" xmlns:rdf="http://www.w3.org/1999/02/22-rdf-syntax-ns#">
   <cc:Work>
    <dc:type rdf:resource="http://purl.org/dc/dcmitype/StillImage"/>
    <dc:date>2023-07-04T10:18:21.960428</dc:date>
    <dc:format>image/svg+xml</dc:format>
    <dc:creator>
     <cc:Agent>
      <dc:title>Matplotlib v3.7.1, https://matplotlib.org/</dc:title>
     </cc:Agent>
    </dc:creator>
   </cc:Work>
  </rdf:RDF>
 </metadata>
 <defs>
  <style type="text/css">*{stroke-linejoin: round; stroke-linecap: butt}</style>
 </defs>
 <g id="figure_1">
  <g id="patch_1">
   <path d="M 0 377.39625 
L 893.182812 377.39625 
L 893.182812 0 
L 0 0 
z
" style="fill: #ffffff"/>
  </g>
  <g id="axes_1">
   <g id="patch_2">
    <path d="M 48.982813 158.4 
L 885.982813 158.4 
L 885.982813 7.2 
L 48.982813 7.2 
z
" style="fill: #ffffff"/>
   </g>
   <g id="patch_3">
    <path d="M 60.607813 158.4 
L 68.357813 158.4 
L 68.357813 150.231145 
L 60.607813 150.231145 
z
" clip-path="url(#p892aabd8ce)"/>
   </g>
   <g id="patch_4">
    <path d="M 107.107813 158.4 
L 114.857813 158.4 
L 114.857813 134.427556 
L 107.107813 134.427556 
z
" clip-path="url(#p892aabd8ce)"/>
   </g>
   <g id="patch_5">
    <path d="M 153.607813 158.4 
L 161.357813 158.4 
L 161.357813 116.742224 
L 153.607813 116.742224 
z
" clip-path="url(#p892aabd8ce)"/>
   </g>
   <g id="patch_6">
    <path d="M 200.107813 158.4 
L 207.857813 158.4 
L 207.857813 100.34916 
L 200.107813 100.34916 
z
" clip-path="url(#p892aabd8ce)"/>
   </g>
   <g id="patch_7">
    <path d="M 246.607813 158.4 
L 254.357813 158.4 
L 254.357813 87.630959 
L 246.607813 87.630959 
z
" clip-path="url(#p892aabd8ce)"/>
   </g>
   <g id="patch_8">
    <path d="M 293.107813 158.4 
L 300.857813 158.4 
L 300.857813 79.414785 
L 293.107813 79.414785 
z
" clip-path="url(#p892aabd8ce)"/>
   </g>
   <g id="patch_9">
    <path d="M 339.607813 158.4 
L 347.357813 158.4 
L 347.357813 82.590945 
L 339.607813 82.590945 
z
" clip-path="url(#p892aabd8ce)"/>
   </g>
   <g id="patch_10">
    <path d="M 386.107813 158.4 
L 393.857813 158.4 
L 393.857813 68.832605 
L 386.107813 68.832605 
z
" clip-path="url(#p892aabd8ce)"/>
   </g>
   <g id="patch_11">
    <path d="M 432.607813 158.4 
L 440.357813 158.4 
L 440.357813 69.154787 
L 432.607813 69.154787 
z
" clip-path="url(#p892aabd8ce)"/>
   </g>
   <g id="patch_12">
    <path d="M 479.107813 158.4 
L 486.857813 158.4 
L 486.857813 61.182332 
L 479.107813 61.182332 
z
" clip-path="url(#p892aabd8ce)"/>
   </g>
   <g id="patch_13">
    <path d="M 525.607813 158.4 
L 533.357813 158.4 
L 533.357813 54.989473 
L 525.607813 54.989473 
z
" clip-path="url(#p892aabd8ce)"/>
   </g>
   <g id="patch_14">
    <path d="M 572.107813 158.4 
L 579.857813 158.4 
L 579.857813 67.929819 
L 572.107813 67.929819 
z
" clip-path="url(#p892aabd8ce)"/>
   </g>
   <g id="patch_15">
    <path d="M 618.607813 158.4 
L 626.357813 158.4 
L 626.357813 70.367414 
L 618.607813 70.367414 
z
" clip-path="url(#p892aabd8ce)"/>
   </g>
   <g id="patch_16">
    <path d="M 665.107813 158.4 
L 672.857813 158.4 
L 672.857813 81.225291 
L 665.107813 81.225291 
z
" clip-path="url(#p892aabd8ce)"/>
   </g>
   <g id="patch_17">
    <path d="M 711.607813 158.4 
L 719.357813 158.4 
L 719.357813 91.935716 
L 711.607813 91.935716 
z
" clip-path="url(#p892aabd8ce)"/>
   </g>
   <g id="patch_18">
    <path d="M 758.107813 158.4 
L 765.857813 158.4 
L 765.857813 107.058547 
L 758.107813 107.058547 
z
" clip-path="url(#p892aabd8ce)"/>
   </g>
   <g id="patch_19">
    <path d="M 804.607813 158.4 
L 812.357813 158.4 
L 812.357813 126.121316 
L 804.607813 126.121316 
z
" clip-path="url(#p892aabd8ce)"/>
   </g>
   <g id="patch_20">
    <path d="M 851.107813 158.4 
L 858.857813 158.4 
L 858.857813 144.423134 
L 851.107813 144.423134 
z
" clip-path="url(#p892aabd8ce)"/>
   </g>
   <g id="patch_21">
    <path d="M 68.357813 158.4 
L 76.107813 158.4 
L 76.107813 149.439023 
L 68.357813 149.439023 
z
" clip-path="url(#p892aabd8ce)" style="fill: #6b6b6b"/>
   </g>
   <g id="patch_22">
    <path d="M 114.857813 158.4 
L 122.607813 158.4 
L 122.607813 125.551999 
L 114.857813 125.551999 
z
" clip-path="url(#p892aabd8ce)" style="fill: #6b6b6b"/>
   </g>
   <g id="patch_23">
    <path d="M 161.357813 158.4 
L 169.107813 158.4 
L 169.107813 100.1507 
L 161.357813 100.1507 
z
" clip-path="url(#p892aabd8ce)" style="fill: #6b6b6b"/>
   </g>
   <g id="patch_24">
    <path d="M 207.857813 158.4 
L 215.607813 158.4 
L 215.607813 79.151835 
L 207.857813 79.151835 
z
" clip-path="url(#p892aabd8ce)" style="fill: #6b6b6b"/>
   </g>
   <g id="patch_25">
    <path d="M 254.357813 158.4 
L 262.107813 158.4 
L 262.107813 63.70081 
L 254.357813 63.70081 
z
" clip-path="url(#p892aabd8ce)" style="fill: #6b6b6b"/>
   </g>
   <g id="patch_26">
    <path d="M 300.857813 158.4 
L 308.607813 158.4 
L 308.607813 40.268797 
L 300.857813 40.268797 
z
" clip-path="url(#p892aabd8ce)" style="fill: #6b6b6b"/>
   </g>
   <g id="patch_27">
    <path d="M 347.357813 158.4 
L 355.107813 158.4 
L 355.107813 53.556589 
L 347.357813 53.556589 
z
" clip-path="url(#p892aabd8ce)" style="fill: #6b6b6b"/>
   </g>
   <g id="patch_28">
    <path d="M 393.857813 158.4 
L 401.607813 158.4 
L 401.607813 34.323274 
L 393.857813 34.323274 
z
" clip-path="url(#p892aabd8ce)" style="fill: #6b6b6b"/>
   </g>
   <g id="patch_29">
    <path d="M 440.357813 158.4 
L 448.107813 158.4 
L 448.107813 39.307883 
L 440.357813 39.307883 
z
" clip-path="url(#p892aabd8ce)" style="fill: #6b6b6b"/>
   </g>
   <g id="patch_30">
    <path d="M 486.857813 158.4 
L 494.607813 158.4 
L 494.607813 39.528395 
L 486.857813 39.528395 
z
" clip-path="url(#p892aabd8ce)" style="fill: #6b6b6b"/>
   </g>
   <g id="patch_31">
    <path d="M 533.357813 158.4 
L 541.107813 158.4 
L 541.107813 18.491621 
L 533.357813 18.491621 
z
" clip-path="url(#p892aabd8ce)" style="fill: #6b6b6b"/>
   </g>
   <g id="patch_32">
    <path d="M 579.857813 158.4 
L 587.607813 158.4 
L 587.607813 46.270246 
L 579.857813 46.270246 
z
" clip-path="url(#p892aabd8ce)" style="fill: #6b6b6b"/>
   </g>
   <g id="patch_33">
    <path d="M 626.357813 158.4 
L 634.107813 158.4 
L 634.107813 42.057374 
L 626.357813 42.057374 
z
" clip-path="url(#p892aabd8ce)" style="fill: #6b6b6b"/>
   </g>
   <g id="patch_34">
    <path d="M 672.857813 158.4 
L 680.607813 158.4 
L 680.607813 62.187104 
L 672.857813 62.187104 
z
" clip-path="url(#p892aabd8ce)" style="fill: #6b6b6b"/>
   </g>
   <g id="patch_35">
    <path d="M 719.357813 158.4 
L 727.107813 158.4 
L 727.107813 81.444428 
L 719.357813 81.444428 
z
" clip-path="url(#p892aabd8ce)" style="fill: #6b6b6b"/>
   </g>
   <g id="patch_36">
    <path d="M 765.857813 158.4 
L 773.607813 158.4 
L 773.607813 105.762092 
L 765.857813 105.762092 
z
" clip-path="url(#p892aabd8ce)" style="fill: #6b6b6b"/>
   </g>
   <g id="patch_37">
    <path d="M 812.357813 158.4 
L 820.107813 158.4 
L 820.107813 128.510974 
L 812.357813 128.510974 
z
" clip-path="url(#p892aabd8ce)" style="fill: #6b6b6b"/>
   </g>
   <g id="patch_38">
    <path d="M 858.857813 158.4 
L 866.607813 158.4 
L 866.607813 148.818483 
L 858.857813 148.818483 
z
" clip-path="url(#p892aabd8ce)" style="fill: #6b6b6b"/>
   </g>
   <g id="patch_39">
    <path d="M 76.107813 158.4 
L 83.857813 158.4 
L 83.857813 149.977038 
L 76.107813 149.977038 
z
" clip-path="url(#p892aabd8ce)" style="fill: #1f77b4"/>
   </g>
   <g id="patch_40">
    <path d="M 122.607813 158.4 
L 130.357813 158.4 
L 130.357813 127.254776 
L 122.607813 127.254776 
z
" clip-path="url(#p892aabd8ce)" style="fill: #1f77b4"/>
   </g>
   <g id="patch_41">
    <path d="M 169.107812 158.4 
L 176.857812 158.4 
L 176.857812 103.980985 
L 169.107812 103.980985 
z
" clip-path="url(#p892aabd8ce)" style="fill: #1f77b4"/>
   </g>
   <g id="patch_42">
    <path d="M 215.607813 158.4 
L 223.357813 158.4 
L 223.357813 85.606357 
L 215.607813 85.606357 
z
" clip-path="url(#p892aabd8ce)" style="fill: #1f77b4"/>
   </g>
   <g id="patch_43">
    <path d="M 262.107813 158.4 
L 269.857813 158.4 
L 269.857813 72.219198 
L 262.107813 72.219198 
z
" clip-path="url(#p892aabd8ce)" style="fill: #1f77b4"/>
   </g>
   <g id="patch_44">
    <path d="M 308.607813 158.4 
L 316.357813 158.4 
L 316.357813 54.120238 
L 308.607813 54.120238 
z
" clip-path="url(#p892aabd8ce)" style="fill: #1f77b4"/>
   </g>
   <g id="patch_45">
    <path d="M 355.107813 158.4 
L 362.857813 158.4 
L 362.857813 53.852695 
L 355.107813 53.852695 
z
" clip-path="url(#p892aabd8ce)" style="fill: #1f77b4"/>
   </g>
   <g id="patch_46">
    <path d="M 401.607813 158.4 
L 409.357813 158.4 
L 409.357813 41.939278 
L 401.607813 41.939278 
z
" clip-path="url(#p892aabd8ce)" style="fill: #1f77b4"/>
   </g>
   <g id="patch_47">
    <path d="M 448.107812 158.4 
L 455.857812 158.4 
L 455.857812 41.096203 
L 448.107812 41.096203 
z
" clip-path="url(#p892aabd8ce)" style="fill: #1f77b4"/>
   </g>
   <g id="patch_48">
    <path d="M 494.607812 158.4 
L 502.357812 158.4 
L 502.357812 28.720173 
L 494.607812 28.720173 
z
" clip-path="url(#p892aabd8ce)" style="fill: #1f77b4"/>
   </g>
   <g id="patch_49">
    <path d="M 541.107812 158.4 
L 548.857812 158.4 
L 548.857812 14.4 
L 541.107812 14.4 
z
" clip-path="url(#p892aabd8ce)" style="fill: #1f77b4"/>
   </g>
   <g id="patch_50">
    <path d="M 587.607813 158.4 
L 595.357813 158.4 
L 595.357813 50.388575 
L 587.607813 50.388575 
z
" clip-path="url(#p892aabd8ce)" style="fill: #1f77b4"/>
   </g>
   <g id="patch_51">
    <path d="M 634.107813 158.4 
L 641.857813 158.4 
L 641.857813 51.146778 
L 634.107813 51.146778 
z
" clip-path="url(#p892aabd8ce)" style="fill: #1f77b4"/>
   </g>
   <g id="patch_52">
    <path d="M 680.607813 158.4 
L 688.357813 158.4 
L 688.357813 71.294627 
L 680.607813 71.294627 
z
" clip-path="url(#p892aabd8ce)" style="fill: #1f77b4"/>
   </g>
   <g id="patch_53">
    <path d="M 727.107813 158.4 
L 734.857813 158.4 
L 734.857813 86.829068 
L 727.107813 86.829068 
z
" clip-path="url(#p892aabd8ce)" style="fill: #1f77b4"/>
   </g>
   <g id="patch_54">
    <path d="M 773.607813 158.4 
L 781.357813 158.4 
L 781.357813 108.798483 
L 773.607813 108.798483 
z
" clip-path="url(#p892aabd8ce)" style="fill: #1f77b4"/>
   </g>
   <g id="patch_55">
    <path d="M 820.107813 158.4 
L 827.857813 158.4 
L 827.857813 130.165805 
L 820.107813 130.165805 
z
" clip-path="url(#p892aabd8ce)" style="fill: #1f77b4"/>
   </g>
   <g id="patch_56">
    <path d="M 866.607813 158.4 
L 874.357813 158.4 
L 874.357813 149.470602 
L 866.607813 149.470602 
z
" clip-path="url(#p892aabd8ce)" style="fill: #1f77b4"/>
   </g>
   <g id="matplotlib.axis_1">
    <g id="xtick_1">
     <g id="line2d_1">
      <defs>
       <path id="m0e2b6d8ce9" d="M 0 0 
L 0 3.5 
" style="stroke: #000000; stroke-width: 0.8"/>
      </defs>
      <g>
       <use xlink:href="#m0e2b6d8ce9" x="72.232813" y="158.4" style="stroke: #000000; stroke-width: 0.8"/>
      </g>
     </g>
    </g>
    <g id="xtick_2">
     <g id="line2d_2">
      <g>
       <use xlink:href="#m0e2b6d8ce9" x="118.732813" y="158.4" style="stroke: #000000; stroke-width: 0.8"/>
      </g>
     </g>
    </g>
    <g id="xtick_3">
     <g id="line2d_3">
      <g>
       <use xlink:href="#m0e2b6d8ce9" x="165.232813" y="158.4" style="stroke: #000000; stroke-width: 0.8"/>
      </g>
     </g>
    </g>
    <g id="xtick_4">
     <g id="line2d_4">
      <g>
       <use xlink:href="#m0e2b6d8ce9" x="211.732813" y="158.4" style="stroke: #000000; stroke-width: 0.8"/>
      </g>
     </g>
    </g>
    <g id="xtick_5">
     <g id="line2d_5">
      <g>
       <use xlink:href="#m0e2b6d8ce9" x="258.232813" y="158.4" style="stroke: #000000; stroke-width: 0.8"/>
      </g>
     </g>
    </g>
    <g id="xtick_6">
     <g id="line2d_6">
      <g>
       <use xlink:href="#m0e2b6d8ce9" x="304.732813" y="158.4" style="stroke: #000000; stroke-width: 0.8"/>
      </g>
     </g>
    </g>
    <g id="xtick_7">
     <g id="line2d_7">
      <g>
       <use xlink:href="#m0e2b6d8ce9" x="351.232813" y="158.4" style="stroke: #000000; stroke-width: 0.8"/>
      </g>
     </g>
    </g>
    <g id="xtick_8">
     <g id="line2d_8">
      <g>
       <use xlink:href="#m0e2b6d8ce9" x="397.732813" y="158.4" style="stroke: #000000; stroke-width: 0.8"/>
      </g>
     </g>
    </g>
    <g id="xtick_9">
     <g id="line2d_9">
      <g>
       <use xlink:href="#m0e2b6d8ce9" x="444.232813" y="158.4" style="stroke: #000000; stroke-width: 0.8"/>
      </g>
     </g>
    </g>
    <g id="xtick_10">
     <g id="line2d_10">
      <g>
       <use xlink:href="#m0e2b6d8ce9" x="490.732813" y="158.4" style="stroke: #000000; stroke-width: 0.8"/>
      </g>
     </g>
    </g>
    <g id="xtick_11">
     <g id="line2d_11">
      <g>
       <use xlink:href="#m0e2b6d8ce9" x="537.232813" y="158.4" style="stroke: #000000; stroke-width: 0.8"/>
      </g>
     </g>
    </g>
    <g id="xtick_12">
     <g id="line2d_12">
      <g>
       <use xlink:href="#m0e2b6d8ce9" x="583.732813" y="158.4" style="stroke: #000000; stroke-width: 0.8"/>
      </g>
     </g>
    </g>
    <g id="xtick_13">
     <g id="line2d_13">
      <g>
       <use xlink:href="#m0e2b6d8ce9" x="630.232813" y="158.4" style="stroke: #000000; stroke-width: 0.8"/>
      </g>
     </g>
    </g>
    <g id="xtick_14">
     <g id="line2d_14">
      <g>
       <use xlink:href="#m0e2b6d8ce9" x="676.732813" y="158.4" style="stroke: #000000; stroke-width: 0.8"/>
      </g>
     </g>
    </g>
    <g id="xtick_15">
     <g id="line2d_15">
      <g>
       <use xlink:href="#m0e2b6d8ce9" x="723.232813" y="158.4" style="stroke: #000000; stroke-width: 0.8"/>
      </g>
     </g>
    </g>
    <g id="xtick_16">
     <g id="line2d_16">
      <g>
       <use xlink:href="#m0e2b6d8ce9" x="769.732813" y="158.4" style="stroke: #000000; stroke-width: 0.8"/>
      </g>
     </g>
    </g>
    <g id="xtick_17">
     <g id="line2d_17">
      <g>
       <use xlink:href="#m0e2b6d8ce9" x="816.232813" y="158.4" style="stroke: #000000; stroke-width: 0.8"/>
      </g>
     </g>
    </g>
    <g id="xtick_18">
     <g id="line2d_18">
      <g>
       <use xlink:href="#m0e2b6d8ce9" x="862.732813" y="158.4" style="stroke: #000000; stroke-width: 0.8"/>
      </g>
     </g>
    </g>
   </g>
   <g id="matplotlib.axis_2">
    <g id="ytick_1">
     <g id="line2d_19">
      <defs>
       <path id="me08c43d72f" d="M 0 0 
L -3.5 0 
" style="stroke: #000000; stroke-width: 0.8"/>
      </defs>
      <g>
       <use xlink:href="#me08c43d72f" x="48.982813" y="158.4" style="stroke: #000000; stroke-width: 0.8"/>
      </g>
     </g>
     <g id="text_1">
      <!-- 0 -->
      <g transform="translate(35.620313 162.199219) scale(0.1 -0.1)">
       <defs>
        <path id="DejaVuSans-30" d="M 2034 4250 
Q 1547 4250 1301 3770 
Q 1056 3291 1056 2328 
Q 1056 1369 1301 889 
Q 1547 409 2034 409 
Q 2525 409 2770 889 
Q 3016 1369 3016 2328 
Q 3016 3291 2770 3770 
Q 2525 4250 2034 4250 
z
M 2034 4750 
Q 2819 4750 3233 4129 
Q 3647 3509 3647 2328 
Q 3647 1150 3233 529 
Q 2819 -91 2034 -91 
Q 1250 -91 836 529 
Q 422 1150 422 2328 
Q 422 3509 836 4129 
Q 1250 4750 2034 4750 
z
" transform="scale(0.015625)"/>
       </defs>
       <use xlink:href="#DejaVuSans-30"/>
      </g>
     </g>
    </g>
    <g id="ytick_2">
     <g id="line2d_20">
      <g>
       <use xlink:href="#me08c43d72f" x="48.982813" y="123.070957" style="stroke: #000000; stroke-width: 0.8"/>
      </g>
     </g>
     <g id="text_2">
      <!-- 100 -->
      <g transform="translate(22.895313 126.870176) scale(0.1 -0.1)">
       <defs>
        <path id="DejaVuSans-31" d="M 794 531 
L 1825 531 
L 1825 4091 
L 703 3866 
L 703 4441 
L 1819 4666 
L 2450 4666 
L 2450 531 
L 3481 531 
L 3481 0 
L 794 0 
L 794 531 
z
" transform="scale(0.015625)"/>
       </defs>
       <use xlink:href="#DejaVuSans-31"/>
       <use xlink:href="#DejaVuSans-30" x="63.623047"/>
       <use xlink:href="#DejaVuSans-30" x="127.246094"/>
      </g>
     </g>
    </g>
    <g id="ytick_3">
     <g id="line2d_21">
      <g>
       <use xlink:href="#me08c43d72f" x="48.982813" y="87.741914" style="stroke: #000000; stroke-width: 0.8"/>
      </g>
     </g>
     <g id="text_3">
      <!-- 200 -->
      <g transform="translate(22.895313 91.541133) scale(0.1 -0.1)">
       <defs>
        <path id="DejaVuSans-32" d="M 1228 531 
L 3431 531 
L 3431 0 
L 469 0 
L 469 531 
Q 828 903 1448 1529 
Q 2069 2156 2228 2338 
Q 2531 2678 2651 2914 
Q 2772 3150 2772 3378 
Q 2772 3750 2511 3984 
Q 2250 4219 1831 4219 
Q 1534 4219 1204 4116 
Q 875 4013 500 3803 
L 500 4441 
Q 881 4594 1212 4672 
Q 1544 4750 1819 4750 
Q 2544 4750 2975 4387 
Q 3406 4025 3406 3419 
Q 3406 3131 3298 2873 
Q 3191 2616 2906 2266 
Q 2828 2175 2409 1742 
Q 1991 1309 1228 531 
z
" transform="scale(0.015625)"/>
       </defs>
       <use xlink:href="#DejaVuSans-32"/>
       <use xlink:href="#DejaVuSans-30" x="63.623047"/>
       <use xlink:href="#DejaVuSans-30" x="127.246094"/>
      </g>
     </g>
    </g>
    <g id="ytick_4">
     <g id="line2d_22">
      <g>
       <use xlink:href="#me08c43d72f" x="48.982813" y="52.412872" style="stroke: #000000; stroke-width: 0.8"/>
      </g>
     </g>
     <g id="text_4">
      <!-- 300 -->
      <g transform="translate(22.895313 56.21209) scale(0.1 -0.1)">
       <defs>
        <path id="DejaVuSans-33" d="M 2597 2516 
Q 3050 2419 3304 2112 
Q 3559 1806 3559 1356 
Q 3559 666 3084 287 
Q 2609 -91 1734 -91 
Q 1441 -91 1130 -33 
Q 819 25 488 141 
L 488 750 
Q 750 597 1062 519 
Q 1375 441 1716 441 
Q 2309 441 2620 675 
Q 2931 909 2931 1356 
Q 2931 1769 2642 2001 
Q 2353 2234 1838 2234 
L 1294 2234 
L 1294 2753 
L 1863 2753 
Q 2328 2753 2575 2939 
Q 2822 3125 2822 3475 
Q 2822 3834 2567 4026 
Q 2313 4219 1838 4219 
Q 1578 4219 1281 4162 
Q 984 4106 628 3988 
L 628 4550 
Q 988 4650 1302 4700 
Q 1616 4750 1894 4750 
Q 2613 4750 3031 4423 
Q 3450 4097 3450 3541 
Q 3450 3153 3228 2886 
Q 3006 2619 2597 2516 
z
" transform="scale(0.015625)"/>
       </defs>
       <use xlink:href="#DejaVuSans-33"/>
       <use xlink:href="#DejaVuSans-30" x="63.623047"/>
       <use xlink:href="#DejaVuSans-30" x="127.246094"/>
      </g>
     </g>
    </g>
    <g id="ytick_5">
     <g id="line2d_23">
      <g>
       <use xlink:href="#me08c43d72f" x="48.982813" y="17.083829" style="stroke: #000000; stroke-width: 0.8"/>
      </g>
     </g>
     <g id="text_5">
      <!-- 400 -->
      <g transform="translate(22.895313 20.883048) scale(0.1 -0.1)">
       <defs>
        <path id="DejaVuSans-34" d="M 2419 4116 
L 825 1625 
L 2419 1625 
L 2419 4116 
z
M 2253 4666 
L 3047 4666 
L 3047 1625 
L 3713 1625 
L 3713 1100 
L 3047 1100 
L 3047 0 
L 2419 0 
L 2419 1100 
L 313 1100 
L 313 1709 
L 2253 4666 
z
" transform="scale(0.015625)"/>
       </defs>
       <use xlink:href="#DejaVuSans-34"/>
       <use xlink:href="#DejaVuSans-30" x="63.623047"/>
       <use xlink:href="#DejaVuSans-30" x="127.246094"/>
      </g>
     </g>
    </g>
    <g id="text_6">
     <!-- Rmse (w/m²) -->
     <g transform="translate(14.798438 114.964844) rotate(-90) scale(0.1 -0.1)">
      <defs>
       <path id="DejaVuSans-52" d="M 2841 2188 
Q 3044 2119 3236 1894 
Q 3428 1669 3622 1275 
L 4263 0 
L 3584 0 
L 2988 1197 
Q 2756 1666 2539 1819 
Q 2322 1972 1947 1972 
L 1259 1972 
L 1259 0 
L 628 0 
L 628 4666 
L 2053 4666 
Q 2853 4666 3247 4331 
Q 3641 3997 3641 3322 
Q 3641 2881 3436 2590 
Q 3231 2300 2841 2188 
z
M 1259 4147 
L 1259 2491 
L 2053 2491 
Q 2509 2491 2742 2702 
Q 2975 2913 2975 3322 
Q 2975 3731 2742 3939 
Q 2509 4147 2053 4147 
L 1259 4147 
z
" transform="scale(0.015625)"/>
       <path id="DejaVuSans-6d" d="M 3328 2828 
Q 3544 3216 3844 3400 
Q 4144 3584 4550 3584 
Q 5097 3584 5394 3201 
Q 5691 2819 5691 2113 
L 5691 0 
L 5113 0 
L 5113 2094 
Q 5113 2597 4934 2840 
Q 4756 3084 4391 3084 
Q 3944 3084 3684 2787 
Q 3425 2491 3425 1978 
L 3425 0 
L 2847 0 
L 2847 2094 
Q 2847 2600 2669 2842 
Q 2491 3084 2119 3084 
Q 1678 3084 1418 2786 
Q 1159 2488 1159 1978 
L 1159 0 
L 581 0 
L 581 3500 
L 1159 3500 
L 1159 2956 
Q 1356 3278 1631 3431 
Q 1906 3584 2284 3584 
Q 2666 3584 2933 3390 
Q 3200 3197 3328 2828 
z
" transform="scale(0.015625)"/>
       <path id="DejaVuSans-73" d="M 2834 3397 
L 2834 2853 
Q 2591 2978 2328 3040 
Q 2066 3103 1784 3103 
Q 1356 3103 1142 2972 
Q 928 2841 928 2578 
Q 928 2378 1081 2264 
Q 1234 2150 1697 2047 
L 1894 2003 
Q 2506 1872 2764 1633 
Q 3022 1394 3022 966 
Q 3022 478 2636 193 
Q 2250 -91 1575 -91 
Q 1294 -91 989 -36 
Q 684 19 347 128 
L 347 722 
Q 666 556 975 473 
Q 1284 391 1588 391 
Q 1994 391 2212 530 
Q 2431 669 2431 922 
Q 2431 1156 2273 1281 
Q 2116 1406 1581 1522 
L 1381 1569 
Q 847 1681 609 1914 
Q 372 2147 372 2553 
Q 372 3047 722 3315 
Q 1072 3584 1716 3584 
Q 2034 3584 2315 3537 
Q 2597 3491 2834 3397 
z
" transform="scale(0.015625)"/>
       <path id="DejaVuSans-65" d="M 3597 1894 
L 3597 1613 
L 953 1613 
Q 991 1019 1311 708 
Q 1631 397 2203 397 
Q 2534 397 2845 478 
Q 3156 559 3463 722 
L 3463 178 
Q 3153 47 2828 -22 
Q 2503 -91 2169 -91 
Q 1331 -91 842 396 
Q 353 884 353 1716 
Q 353 2575 817 3079 
Q 1281 3584 2069 3584 
Q 2775 3584 3186 3129 
Q 3597 2675 3597 1894 
z
M 3022 2063 
Q 3016 2534 2758 2815 
Q 2500 3097 2075 3097 
Q 1594 3097 1305 2825 
Q 1016 2553 972 2059 
L 3022 2063 
z
" transform="scale(0.015625)"/>
       <path id="DejaVuSans-20" transform="scale(0.015625)"/>
       <path id="DejaVuSans-28" d="M 1984 4856 
Q 1566 4138 1362 3434 
Q 1159 2731 1159 2009 
Q 1159 1288 1364 580 
Q 1569 -128 1984 -844 
L 1484 -844 
Q 1016 -109 783 600 
Q 550 1309 550 2009 
Q 550 2706 781 3412 
Q 1013 4119 1484 4856 
L 1984 4856 
z
" transform="scale(0.015625)"/>
       <path id="DejaVuSans-77" d="M 269 3500 
L 844 3500 
L 1563 769 
L 2278 3500 
L 2956 3500 
L 3675 769 
L 4391 3500 
L 4966 3500 
L 4050 0 
L 3372 0 
L 2619 2869 
L 1863 0 
L 1184 0 
L 269 3500 
z
" transform="scale(0.015625)"/>
       <path id="DejaVuSans-2f" d="M 1625 4666 
L 2156 4666 
L 531 -594 
L 0 -594 
L 1625 4666 
z
" transform="scale(0.015625)"/>
       <path id="DejaVuSans-b2" d="M 838 2444 
L 2163 2444 
L 2163 2088 
L 294 2088 
L 294 2431 
Q 400 2528 597 2703 
Q 1672 3656 1672 3950 
Q 1672 4156 1509 4282 
Q 1347 4409 1081 4409 
Q 919 4409 728 4354 
Q 538 4300 313 4191 
L 313 4575 
Q 553 4663 761 4706 
Q 969 4750 1147 4750 
Q 1600 4750 1872 4544 
Q 2144 4338 2144 4000 
Q 2144 3566 1109 2678 
Q 934 2528 838 2444 
z
" transform="scale(0.015625)"/>
       <path id="DejaVuSans-29" d="M 513 4856 
L 1013 4856 
Q 1481 4119 1714 3412 
Q 1947 2706 1947 2009 
Q 1947 1309 1714 600 
Q 1481 -109 1013 -844 
L 513 -844 
Q 928 -128 1133 580 
Q 1338 1288 1338 2009 
Q 1338 2731 1133 3434 
Q 928 4138 513 4856 
z
" transform="scale(0.015625)"/>
      </defs>
      <use xlink:href="#DejaVuSans-52"/>
      <use xlink:href="#DejaVuSans-6d" x="69.482422"/>
      <use xlink:href="#DejaVuSans-73" x="166.894531"/>
      <use xlink:href="#DejaVuSans-65" x="218.994141"/>
      <use xlink:href="#DejaVuSans-20" x="280.517578"/>
      <use xlink:href="#DejaVuSans-28" x="312.304688"/>
      <use xlink:href="#DejaVuSans-77" x="351.318359"/>
      <use xlink:href="#DejaVuSans-2f" x="433.105469"/>
      <use xlink:href="#DejaVuSans-6d" x="466.796875"/>
      <use xlink:href="#DejaVuSans-b2" x="564.208984"/>
      <use xlink:href="#DejaVuSans-29" x="604.296875"/>
     </g>
    </g>
   </g>
   <g id="patch_57">
    <path d="M 48.982813 158.4 
L 48.982813 7.2 
" style="fill: none; stroke: #000000; stroke-width: 0.8; stroke-linejoin: miter; stroke-linecap: square"/>
   </g>
   <g id="patch_58">
    <path d="M 885.982813 158.4 
L 885.982813 7.2 
" style="fill: none; stroke: #000000; stroke-width: 0.8; stroke-linejoin: miter; stroke-linecap: square"/>
   </g>
   <g id="patch_59">
    <path d="M 48.982813 158.4 
L 885.982813 158.4 
" style="fill: none; stroke: #000000; stroke-width: 0.8; stroke-linejoin: miter; stroke-linecap: square"/>
   </g>
   <g id="patch_60">
    <path d="M 48.982813 7.2 
L 885.982813 7.2 
" style="fill: none; stroke: #000000; stroke-width: 0.8; stroke-linejoin: miter; stroke-linecap: square"/>
   </g>
   <g id="legend_1">
    <g id="patch_61">
     <path d="M 55.982813 73.9125 
L 145.854688 73.9125 
Q 147.854688 73.9125 147.854688 71.9125 
L 147.854688 14.2 
Q 147.854688 12.2 145.854688 12.2 
L 55.982813 12.2 
Q 53.982813 12.2 53.982813 14.2 
L 53.982813 71.9125 
Q 53.982813 73.9125 55.982813 73.9125 
z
" style="fill: #ffffff; opacity: 0.8; stroke: #cccccc; stroke-linejoin: miter"/>
    </g>
    <g id="text_7">
     <!-- Model -->
     <g transform="translate(85.905469 23.798437) scale(0.1 -0.1)">
      <defs>
       <path id="DejaVuSans-4d" d="M 628 4666 
L 1569 4666 
L 2759 1491 
L 3956 4666 
L 4897 4666 
L 4897 0 
L 4281 0 
L 4281 4097 
L 3078 897 
L 2444 897 
L 1241 4097 
L 1241 0 
L 628 0 
L 628 4666 
z
" transform="scale(0.015625)"/>
       <path id="DejaVuSans-6f" d="M 1959 3097 
Q 1497 3097 1228 2736 
Q 959 2375 959 1747 
Q 959 1119 1226 758 
Q 1494 397 1959 397 
Q 2419 397 2687 759 
Q 2956 1122 2956 1747 
Q 2956 2369 2687 2733 
Q 2419 3097 1959 3097 
z
M 1959 3584 
Q 2709 3584 3137 3096 
Q 3566 2609 3566 1747 
Q 3566 888 3137 398 
Q 2709 -91 1959 -91 
Q 1206 -91 779 398 
Q 353 888 353 1747 
Q 353 2609 779 3096 
Q 1206 3584 1959 3584 
z
" transform="scale(0.015625)"/>
       <path id="DejaVuSans-64" d="M 2906 2969 
L 2906 4863 
L 3481 4863 
L 3481 0 
L 2906 0 
L 2906 525 
Q 2725 213 2448 61 
Q 2172 -91 1784 -91 
Q 1150 -91 751 415 
Q 353 922 353 1747 
Q 353 2572 751 3078 
Q 1150 3584 1784 3584 
Q 2172 3584 2448 3432 
Q 2725 3281 2906 2969 
z
M 947 1747 
Q 947 1113 1208 752 
Q 1469 391 1925 391 
Q 2381 391 2643 752 
Q 2906 1113 2906 1747 
Q 2906 2381 2643 2742 
Q 2381 3103 1925 3103 
Q 1469 3103 1208 2742 
Q 947 2381 947 1747 
z
" transform="scale(0.015625)"/>
       <path id="DejaVuSans-6c" d="M 603 4863 
L 1178 4863 
L 1178 0 
L 603 0 
L 603 4863 
z
" transform="scale(0.015625)"/>
      </defs>
      <use xlink:href="#DejaVuSans-4d"/>
      <use xlink:href="#DejaVuSans-6f" x="86.279297"/>
      <use xlink:href="#DejaVuSans-64" x="147.460938"/>
      <use xlink:href="#DejaVuSans-65" x="210.9375"/>
      <use xlink:href="#DejaVuSans-6c" x="272.460938"/>
     </g>
    </g>
    <g id="patch_62">
     <path d="M 57.982813 38.476562 
L 77.982813 38.476562 
L 77.982813 31.476562 
L 57.982813 31.476562 
z
"/>
    </g>
    <g id="text_8">
     <!-- reference -->
     <g transform="translate(85.982813 38.476562) scale(0.1 -0.1)">
      <defs>
       <path id="DejaVuSans-72" d="M 2631 2963 
Q 2534 3019 2420 3045 
Q 2306 3072 2169 3072 
Q 1681 3072 1420 2755 
Q 1159 2438 1159 1844 
L 1159 0 
L 581 0 
L 581 3500 
L 1159 3500 
L 1159 2956 
Q 1341 3275 1631 3429 
Q 1922 3584 2338 3584 
Q 2397 3584 2469 3576 
Q 2541 3569 2628 3553 
L 2631 2963 
z
" transform="scale(0.015625)"/>
       <path id="DejaVuSans-66" d="M 2375 4863 
L 2375 4384 
L 1825 4384 
Q 1516 4384 1395 4259 
Q 1275 4134 1275 3809 
L 1275 3500 
L 2222 3500 
L 2222 3053 
L 1275 3053 
L 1275 0 
L 697 0 
L 697 3053 
L 147 3053 
L 147 3500 
L 697 3500 
L 697 3744 
Q 697 4328 969 4595 
Q 1241 4863 1831 4863 
L 2375 4863 
z
" transform="scale(0.015625)"/>
       <path id="DejaVuSans-6e" d="M 3513 2113 
L 3513 0 
L 2938 0 
L 2938 2094 
Q 2938 2591 2744 2837 
Q 2550 3084 2163 3084 
Q 1697 3084 1428 2787 
Q 1159 2491 1159 1978 
L 1159 0 
L 581 0 
L 581 3500 
L 1159 3500 
L 1159 2956 
Q 1366 3272 1645 3428 
Q 1925 3584 2291 3584 
Q 2894 3584 3203 3211 
Q 3513 2838 3513 2113 
z
" transform="scale(0.015625)"/>
       <path id="DejaVuSans-63" d="M 3122 3366 
L 3122 2828 
Q 2878 2963 2633 3030 
Q 2388 3097 2138 3097 
Q 1578 3097 1268 2742 
Q 959 2388 959 1747 
Q 959 1106 1268 751 
Q 1578 397 2138 397 
Q 2388 397 2633 464 
Q 2878 531 3122 666 
L 3122 134 
Q 2881 22 2623 -34 
Q 2366 -91 2075 -91 
Q 1284 -91 818 406 
Q 353 903 353 1747 
Q 353 2603 823 3093 
Q 1294 3584 2113 3584 
Q 2378 3584 2631 3529 
Q 2884 3475 3122 3366 
z
" transform="scale(0.015625)"/>
      </defs>
      <use xlink:href="#DejaVuSans-72"/>
      <use xlink:href="#DejaVuSans-65" x="38.863281"/>
      <use xlink:href="#DejaVuSans-66" x="100.386719"/>
      <use xlink:href="#DejaVuSans-65" x="135.591797"/>
      <use xlink:href="#DejaVuSans-72" x="197.115234"/>
      <use xlink:href="#DejaVuSans-65" x="235.978516"/>
      <use xlink:href="#DejaVuSans-6e" x="297.501953"/>
      <use xlink:href="#DejaVuSans-63" x="360.880859"/>
      <use xlink:href="#DejaVuSans-65" x="415.861328"/>
     </g>
    </g>
    <g id="patch_63">
     <path d="M 57.982813 53.154688 
L 77.982813 53.154688 
L 77.982813 46.154688 
L 57.982813 46.154688 
z
" style="fill: #6b6b6b"/>
    </g>
    <g id="text_9">
     <!-- persistence -->
     <g transform="translate(85.982813 53.154688) scale(0.1 -0.1)">
      <defs>
       <path id="DejaVuSans-70" d="M 1159 525 
L 1159 -1331 
L 581 -1331 
L 581 3500 
L 1159 3500 
L 1159 2969 
Q 1341 3281 1617 3432 
Q 1894 3584 2278 3584 
Q 2916 3584 3314 3078 
Q 3713 2572 3713 1747 
Q 3713 922 3314 415 
Q 2916 -91 2278 -91 
Q 1894 -91 1617 61 
Q 1341 213 1159 525 
z
M 3116 1747 
Q 3116 2381 2855 2742 
Q 2594 3103 2138 3103 
Q 1681 3103 1420 2742 
Q 1159 2381 1159 1747 
Q 1159 1113 1420 752 
Q 1681 391 2138 391 
Q 2594 391 2855 752 
Q 3116 1113 3116 1747 
z
" transform="scale(0.015625)"/>
       <path id="DejaVuSans-69" d="M 603 3500 
L 1178 3500 
L 1178 0 
L 603 0 
L 603 3500 
z
M 603 4863 
L 1178 4863 
L 1178 4134 
L 603 4134 
L 603 4863 
z
" transform="scale(0.015625)"/>
       <path id="DejaVuSans-74" d="M 1172 4494 
L 1172 3500 
L 2356 3500 
L 2356 3053 
L 1172 3053 
L 1172 1153 
Q 1172 725 1289 603 
Q 1406 481 1766 481 
L 2356 481 
L 2356 0 
L 1766 0 
Q 1100 0 847 248 
Q 594 497 594 1153 
L 594 3053 
L 172 3053 
L 172 3500 
L 594 3500 
L 594 4494 
L 1172 4494 
z
" transform="scale(0.015625)"/>
      </defs>
      <use xlink:href="#DejaVuSans-70"/>
      <use xlink:href="#DejaVuSans-65" x="63.476562"/>
      <use xlink:href="#DejaVuSans-72" x="125"/>
      <use xlink:href="#DejaVuSans-73" x="166.113281"/>
      <use xlink:href="#DejaVuSans-69" x="218.212891"/>
      <use xlink:href="#DejaVuSans-73" x="245.996094"/>
      <use xlink:href="#DejaVuSans-74" x="298.095703"/>
      <use xlink:href="#DejaVuSans-65" x="337.304688"/>
      <use xlink:href="#DejaVuSans-6e" x="398.828125"/>
      <use xlink:href="#DejaVuSans-63" x="462.207031"/>
      <use xlink:href="#DejaVuSans-65" x="517.1875"/>
     </g>
    </g>
    <g id="patch_64">
     <path d="M 57.982813 67.832812 
L 77.982813 67.832812 
L 77.982813 60.832812 
L 57.982813 60.832812 
z
" style="fill: #1f77b4"/>
    </g>
    <g id="text_10">
     <!-- kalman -->
     <g transform="translate(85.982813 67.832812) scale(0.1 -0.1)">
      <defs>
       <path id="DejaVuSans-6b" d="M 581 4863 
L 1159 4863 
L 1159 1991 
L 2875 3500 
L 3609 3500 
L 1753 1863 
L 3688 0 
L 2938 0 
L 1159 1709 
L 1159 0 
L 581 0 
L 581 4863 
z
" transform="scale(0.015625)"/>
       <path id="DejaVuSans-61" d="M 2194 1759 
Q 1497 1759 1228 1600 
Q 959 1441 959 1056 
Q 959 750 1161 570 
Q 1363 391 1709 391 
Q 2188 391 2477 730 
Q 2766 1069 2766 1631 
L 2766 1759 
L 2194 1759 
z
M 3341 1997 
L 3341 0 
L 2766 0 
L 2766 531 
Q 2569 213 2275 61 
Q 1981 -91 1556 -91 
Q 1019 -91 701 211 
Q 384 513 384 1019 
Q 384 1609 779 1909 
Q 1175 2209 1959 2209 
L 2766 2209 
L 2766 2266 
Q 2766 2663 2505 2880 
Q 2244 3097 1772 3097 
Q 1472 3097 1187 3025 
Q 903 2953 641 2809 
L 641 3341 
Q 956 3463 1253 3523 
Q 1550 3584 1831 3584 
Q 2591 3584 2966 3190 
Q 3341 2797 3341 1997 
z
" transform="scale(0.015625)"/>
      </defs>
      <use xlink:href="#DejaVuSans-6b"/>
      <use xlink:href="#DejaVuSans-61" x="56.160156"/>
      <use xlink:href="#DejaVuSans-6c" x="117.439453"/>
      <use xlink:href="#DejaVuSans-6d" x="145.222656"/>
      <use xlink:href="#DejaVuSans-61" x="242.634766"/>
      <use xlink:href="#DejaVuSans-6e" x="303.914062"/>
     </g>
    </g>
   </g>
  </g>
  <g id="axes_2">
   <g id="patch_65">
    <path d="M 48.982813 339.84 
L 885.982813 339.84 
L 885.982813 188.64 
L 48.982813 188.64 
z
" style="fill: #ffffff"/>
   </g>
   <g id="patch_66">
    <path d="M 60.607813 316.158887 
L 68.357813 316.158887 
L 68.357813 324.32071 
L 60.607813 324.32071 
z
" clip-path="url(#p2650a6c3ee)"/>
   </g>
   <g id="patch_67">
    <path d="M 107.107813 316.158887 
L 114.857813 316.158887 
L 114.857813 332.967273 
L 107.107813 332.967273 
z
" clip-path="url(#p2650a6c3ee)"/>
   </g>
   <g id="patch_68">
    <path d="M 153.607813 316.158887 
L 161.357813 316.158887 
L 161.357813 307.813122 
L 153.607813 307.813122 
z
" clip-path="url(#p2650a6c3ee)"/>
   </g>
   <g id="patch_69">
    <path d="M 200.107813 316.158887 
L 207.857813 316.158887 
L 207.857813 299.288297 
L 200.107813 299.288297 
z
" clip-path="url(#p2650a6c3ee)"/>
   </g>
   <g id="patch_70">
    <path d="M 246.607813 316.158887 
L 254.357813 316.158887 
L 254.357813 296.798409 
L 246.607813 296.798409 
z
" clip-path="url(#p2650a6c3ee)"/>
   </g>
   <g id="patch_71">
    <path d="M 293.107813 316.158887 
L 300.857813 316.158887 
L 300.857813 272.270761 
L 293.107813 272.270761 
z
" clip-path="url(#p2650a6c3ee)"/>
   </g>
   <g id="patch_72">
    <path d="M 339.607813 316.158887 
L 347.357813 316.158887 
L 347.357813 280.079904 
L 339.607813 280.079904 
z
" clip-path="url(#p2650a6c3ee)"/>
   </g>
   <g id="patch_73">
    <path d="M 386.107813 316.158887 
L 393.857813 316.158887 
L 393.857813 240.292331 
L 386.107813 240.292331 
z
" clip-path="url(#p2650a6c3ee)"/>
   </g>
   <g id="patch_74">
    <path d="M 432.607813 316.158887 
L 440.357813 316.158887 
L 440.357813 242.548875 
L 432.607813 242.548875 
z
" clip-path="url(#p2650a6c3ee)"/>
   </g>
   <g id="patch_75">
    <path d="M 479.107813 316.158887 
L 486.857813 316.158887 
L 486.857813 222.267562 
L 479.107813 222.267562 
z
" clip-path="url(#p2650a6c3ee)"/>
   </g>
   <g id="patch_76">
    <path d="M 525.607813 316.158887 
L 533.357813 316.158887 
L 533.357813 195.512727 
L 525.607813 195.512727 
z
" clip-path="url(#p2650a6c3ee)"/>
   </g>
   <g id="patch_77">
    <path d="M 572.107813 316.158887 
L 579.857813 316.158887 
L 579.857813 223.906217 
L 572.107813 223.906217 
z
" clip-path="url(#p2650a6c3ee)"/>
   </g>
   <g id="patch_78">
    <path d="M 618.607813 316.158887 
L 626.357813 316.158887 
L 626.357813 216.773388 
L 618.607813 216.773388 
z
" clip-path="url(#p2650a6c3ee)"/>
   </g>
   <g id="patch_79">
    <path d="M 665.107813 316.158887 
L 672.857813 316.158887 
L 672.857813 228.828539 
L 665.107813 228.828539 
z
" clip-path="url(#p2650a6c3ee)"/>
   </g>
   <g id="patch_80">
    <path d="M 711.607813 316.158887 
L 719.357813 316.158887 
L 719.357813 215.793286 
L 711.607813 215.793286 
z
" clip-path="url(#p2650a6c3ee)"/>
   </g>
   <g id="patch_81">
    <path d="M 758.107813 316.158887 
L 765.857813 316.158887 
L 765.857813 230.257948 
L 758.107813 230.257948 
z
" clip-path="url(#p2650a6c3ee)"/>
   </g>
   <g id="patch_82">
    <path d="M 804.607813 316.158887 
L 812.357813 316.158887 
L 812.357813 258.046105 
L 804.607813 258.046105 
z
" clip-path="url(#p2650a6c3ee)"/>
   </g>
   <g id="patch_83">
    <path d="M 851.107813 316.158887 
L 858.857813 316.158887 
L 858.857813 289.591638 
L 851.107813 289.591638 
z
" clip-path="url(#p2650a6c3ee)"/>
   </g>
   <g id="patch_84">
    <path d="M 68.357813 316.158887 
L 76.107813 316.158887 
L 76.107813 315.826417 
L 68.357813 315.826417 
z
" clip-path="url(#p2650a6c3ee)" style="fill: #6b6b6b"/>
   </g>
   <g id="patch_85">
    <path d="M 114.857813 316.158887 
L 122.607813 316.158887 
L 122.607813 314.81782 
L 114.857813 314.81782 
z
" clip-path="url(#p2650a6c3ee)" style="fill: #6b6b6b"/>
   </g>
   <g id="patch_86">
    <path d="M 161.357813 316.158887 
L 169.107813 316.158887 
L 169.107813 315.352879 
L 161.357813 315.352879 
z
" clip-path="url(#p2650a6c3ee)" style="fill: #6b6b6b"/>
   </g>
   <g id="patch_87">
    <path d="M 207.857813 316.158887 
L 215.607813 316.158887 
L 215.607813 319.197437 
L 207.857813 319.197437 
z
" clip-path="url(#p2650a6c3ee)" style="fill: #6b6b6b"/>
   </g>
   <g id="patch_88">
    <path d="M 254.357813 316.158887 
L 262.107813 316.158887 
L 262.107813 317.936403 
L 254.357813 317.936403 
z
" clip-path="url(#p2650a6c3ee)" style="fill: #6b6b6b"/>
   </g>
   <g id="patch_89">
    <path d="M 300.857813 316.158887 
L 308.607813 316.158887 
L 308.607813 306.525615 
L 300.857813 306.525615 
z
" clip-path="url(#p2650a6c3ee)" style="fill: #6b6b6b"/>
   </g>
   <g id="patch_90">
    <path d="M 347.357813 316.158887 
L 355.107813 316.158887 
L 355.107813 308.249088 
L 347.357813 308.249088 
z
" clip-path="url(#p2650a6c3ee)" style="fill: #6b6b6b"/>
   </g>
   <g id="patch_91">
    <path d="M 393.857813 316.158887 
L 401.607813 316.158887 
L 401.607813 305.437191 
L 393.857813 305.437191 
z
" clip-path="url(#p2650a6c3ee)" style="fill: #6b6b6b"/>
   </g>
   <g id="patch_92">
    <path d="M 440.357813 316.158887 
L 448.107813 316.158887 
L 448.107813 283.712932 
L 440.357813 283.712932 
z
" clip-path="url(#p2650a6c3ee)" style="fill: #6b6b6b"/>
   </g>
   <g id="patch_93">
    <path d="M 486.857813 316.158887 
L 494.607813 316.158887 
L 494.607813 294.058538 
L 486.857813 294.058538 
z
" clip-path="url(#p2650a6c3ee)" style="fill: #6b6b6b"/>
   </g>
   <g id="patch_94">
    <path d="M 533.357813 316.158887 
L 541.107813 316.158887 
L 541.107813 289.356622 
L 533.357813 289.356622 
z
" clip-path="url(#p2650a6c3ee)" style="fill: #6b6b6b"/>
   </g>
   <g id="patch_95">
    <path d="M 579.857813 316.158887 
L 587.607813 316.158887 
L 587.607813 298.21558 
L 579.857813 298.21558 
z
" clip-path="url(#p2650a6c3ee)" style="fill: #6b6b6b"/>
   </g>
   <g id="patch_96">
    <path d="M 626.357813 316.158887 
L 634.107813 316.158887 
L 634.107813 306.385923 
L 626.357813 306.385923 
z
" clip-path="url(#p2650a6c3ee)" style="fill: #6b6b6b"/>
   </g>
   <g id="patch_97">
    <path d="M 672.857813 316.158887 
L 680.607813 316.158887 
L 680.607813 305.540119 
L 672.857813 305.540119 
z
" clip-path="url(#p2650a6c3ee)" style="fill: #6b6b6b"/>
   </g>
   <g id="patch_98">
    <path d="M 719.357813 316.158887 
L 727.107813 316.158887 
L 727.107813 306.626537 
L 719.357813 306.626537 
z
" clip-path="url(#p2650a6c3ee)" style="fill: #6b6b6b"/>
   </g>
   <g id="patch_99">
    <path d="M 765.857813 316.158887 
L 773.607813 316.158887 
L 773.607813 311.526214 
L 765.857813 311.526214 
z
" clip-path="url(#p2650a6c3ee)" style="fill: #6b6b6b"/>
   </g>
   <g id="patch_100">
    <path d="M 812.357813 316.158887 
L 820.107813 316.158887 
L 820.107813 314.589804 
L 812.357813 314.589804 
z
" clip-path="url(#p2650a6c3ee)" style="fill: #6b6b6b"/>
   </g>
   <g id="patch_101">
    <path d="M 858.857813 316.158887 
L 866.607813 316.158887 
L 866.607813 315.299629 
L 858.857813 315.299629 
z
" clip-path="url(#p2650a6c3ee)" style="fill: #6b6b6b"/>
   </g>
   <g id="patch_102">
    <path d="M 76.107813 316.158887 
L 83.857813 316.158887 
L 83.857813 316.265805 
L 76.107813 316.265805 
z
" clip-path="url(#p2650a6c3ee)" style="fill: #1f77b4"/>
   </g>
   <g id="patch_103">
    <path d="M 122.607813 316.158887 
L 130.357813 316.158887 
L 130.357813 315.926135 
L 122.607813 315.926135 
z
" clip-path="url(#p2650a6c3ee)" style="fill: #1f77b4"/>
   </g>
   <g id="patch_104">
    <path d="M 169.107812 316.158887 
L 176.857812 316.158887 
L 176.857812 317.78931 
L 169.107812 317.78931 
z
" clip-path="url(#p2650a6c3ee)" style="fill: #1f77b4"/>
   </g>
   <g id="patch_105">
    <path d="M 215.607813 316.158887 
L 223.357813 316.158887 
L 223.357813 320.373092 
L 215.607813 320.373092 
z
" clip-path="url(#p2650a6c3ee)" style="fill: #1f77b4"/>
   </g>
   <g id="patch_106">
    <path d="M 262.107813 316.158887 
L 269.857813 316.158887 
L 269.857813 319.849249 
L 262.107813 319.849249 
z
" clip-path="url(#p2650a6c3ee)" style="fill: #1f77b4"/>
   </g>
   <g id="patch_107">
    <path d="M 308.607813 316.158887 
L 316.357813 316.158887 
L 316.357813 314.381995 
L 308.607813 314.381995 
z
" clip-path="url(#p2650a6c3ee)" style="fill: #1f77b4"/>
   </g>
   <g id="patch_108">
    <path d="M 355.107813 316.158887 
L 362.857813 316.158887 
L 362.857813 315.720111 
L 355.107813 315.720111 
z
" clip-path="url(#p2650a6c3ee)" style="fill: #1f77b4"/>
   </g>
   <g id="patch_109">
    <path d="M 401.607813 316.158887 
L 409.357813 316.158887 
L 409.357813 302.226814 
L 401.607813 302.226814 
z
" clip-path="url(#p2650a6c3ee)" style="fill: #1f77b4"/>
   </g>
   <g id="patch_110">
    <path d="M 448.107812 316.158887 
L 455.857812 316.158887 
L 455.857812 314.159996 
L 448.107812 314.159996 
z
" clip-path="url(#p2650a6c3ee)" style="fill: #1f77b4"/>
   </g>
   <g id="patch_111">
    <path d="M 494.607812 316.158887 
L 502.357812 316.158887 
L 502.357812 318.533369 
L 494.607812 318.533369 
z
" clip-path="url(#p2650a6c3ee)" style="fill: #1f77b4"/>
   </g>
   <g id="patch_112">
    <path d="M 541.107812 316.158887 
L 548.857812 316.158887 
L 548.857812 295.022662 
L 541.107812 295.022662 
z
" clip-path="url(#p2650a6c3ee)" style="fill: #1f77b4"/>
   </g>
   <g id="patch_113">
    <path d="M 587.607813 316.158887 
L 595.357813 316.158887 
L 595.357813 316.509736 
L 587.607813 316.509736 
z
" clip-path="url(#p2650a6c3ee)" style="fill: #1f77b4"/>
   </g>
   <g id="patch_114">
    <path d="M 634.107813 316.158887 
L 641.857813 316.158887 
L 641.857813 307.973128 
L 634.107813 307.973128 
z
" clip-path="url(#p2650a6c3ee)" style="fill: #1f77b4"/>
   </g>
   <g id="patch_115">
    <path d="M 680.607813 316.158887 
L 688.357813 316.158887 
L 688.357813 314.46027 
L 680.607813 314.46027 
z
" clip-path="url(#p2650a6c3ee)" style="fill: #1f77b4"/>
   </g>
   <g id="patch_116">
    <path d="M 727.107813 316.158887 
L 734.857813 316.158887 
L 734.857813 313.924851 
L 727.107813 313.924851 
z
" clip-path="url(#p2650a6c3ee)" style="fill: #1f77b4"/>
   </g>
   <g id="patch_117">
    <path d="M 773.607813 316.158887 
L 781.357813 316.158887 
L 781.357813 319.134454 
L 773.607813 319.134454 
z
" clip-path="url(#p2650a6c3ee)" style="fill: #1f77b4"/>
   </g>
   <g id="patch_118">
    <path d="M 820.107813 316.158887 
L 827.857813 316.158887 
L 827.857813 317.498924 
L 820.107813 317.498924 
z
" clip-path="url(#p2650a6c3ee)" style="fill: #1f77b4"/>
   </g>
   <g id="patch_119">
    <path d="M 866.607813 316.158887 
L 874.357813 316.158887 
L 874.357813 316.659746 
L 866.607813 316.659746 
z
" clip-path="url(#p2650a6c3ee)" style="fill: #1f77b4"/>
   </g>
   <g id="matplotlib.axis_3">
    <g id="xtick_19">
     <g id="line2d_24">
      <g>
       <use xlink:href="#m0e2b6d8ce9" x="72.232813" y="339.84" style="stroke: #000000; stroke-width: 0.8"/>
      </g>
     </g>
     <g id="text_11">
      <!-- (0,10) -->
      <g transform="translate(57.198438 354.438437) scale(0.1 -0.1)">
       <defs>
        <path id="DejaVuSans-2c" d="M 750 794 
L 1409 794 
L 1409 256 
L 897 -744 
L 494 -744 
L 750 256 
L 750 794 
z
" transform="scale(0.015625)"/>
       </defs>
       <use xlink:href="#DejaVuSans-28"/>
       <use xlink:href="#DejaVuSans-30" x="39.013672"/>
       <use xlink:href="#DejaVuSans-2c" x="102.636719"/>
       <use xlink:href="#DejaVuSans-31" x="134.423828"/>
       <use xlink:href="#DejaVuSans-30" x="198.046875"/>
       <use xlink:href="#DejaVuSans-29" x="261.669922"/>
      </g>
     </g>
    </g>
    <g id="xtick_20">
     <g id="line2d_25">
      <g>
       <use xlink:href="#m0e2b6d8ce9" x="118.732813" y="339.84" style="stroke: #000000; stroke-width: 0.8"/>
      </g>
     </g>
     <g id="text_12">
      <!-- (10,20) -->
      <g transform="translate(100.517188 354.438437) scale(0.1 -0.1)">
       <use xlink:href="#DejaVuSans-28"/>
       <use xlink:href="#DejaVuSans-31" x="39.013672"/>
       <use xlink:href="#DejaVuSans-30" x="102.636719"/>
       <use xlink:href="#DejaVuSans-2c" x="166.259766"/>
       <use xlink:href="#DejaVuSans-32" x="198.046875"/>
       <use xlink:href="#DejaVuSans-30" x="261.669922"/>
       <use xlink:href="#DejaVuSans-29" x="325.292969"/>
      </g>
     </g>
    </g>
    <g id="xtick_21">
     <g id="line2d_26">
      <g>
       <use xlink:href="#m0e2b6d8ce9" x="165.232813" y="339.84" style="stroke: #000000; stroke-width: 0.8"/>
      </g>
     </g>
     <g id="text_13">
      <!-- (20,30) -->
      <g transform="translate(147.017188 354.438437) scale(0.1 -0.1)">
       <use xlink:href="#DejaVuSans-28"/>
       <use xlink:href="#DejaVuSans-32" x="39.013672"/>
       <use xlink:href="#DejaVuSans-30" x="102.636719"/>
       <use xlink:href="#DejaVuSans-2c" x="166.259766"/>
       <use xlink:href="#DejaVuSans-33" x="198.046875"/>
       <use xlink:href="#DejaVuSans-30" x="261.669922"/>
       <use xlink:href="#DejaVuSans-29" x="325.292969"/>
      </g>
     </g>
    </g>
    <g id="xtick_22">
     <g id="line2d_27">
      <g>
       <use xlink:href="#m0e2b6d8ce9" x="211.732813" y="339.84" style="stroke: #000000; stroke-width: 0.8"/>
      </g>
     </g>
     <g id="text_14">
      <!-- (30,40) -->
      <g transform="translate(193.517188 354.438437) scale(0.1 -0.1)">
       <use xlink:href="#DejaVuSans-28"/>
       <use xlink:href="#DejaVuSans-33" x="39.013672"/>
       <use xlink:href="#DejaVuSans-30" x="102.636719"/>
       <use xlink:href="#DejaVuSans-2c" x="166.259766"/>
       <use xlink:href="#DejaVuSans-34" x="198.046875"/>
       <use xlink:href="#DejaVuSans-30" x="261.669922"/>
       <use xlink:href="#DejaVuSans-29" x="325.292969"/>
      </g>
     </g>
    </g>
    <g id="xtick_23">
     <g id="line2d_28">
      <g>
       <use xlink:href="#m0e2b6d8ce9" x="258.232813" y="339.84" style="stroke: #000000; stroke-width: 0.8"/>
      </g>
     </g>
     <g id="text_15">
      <!-- (40,50) -->
      <g transform="translate(240.017188 354.438437) scale(0.1 -0.1)">
       <defs>
        <path id="DejaVuSans-35" d="M 691 4666 
L 3169 4666 
L 3169 4134 
L 1269 4134 
L 1269 2991 
Q 1406 3038 1543 3061 
Q 1681 3084 1819 3084 
Q 2600 3084 3056 2656 
Q 3513 2228 3513 1497 
Q 3513 744 3044 326 
Q 2575 -91 1722 -91 
Q 1428 -91 1123 -41 
Q 819 9 494 109 
L 494 744 
Q 775 591 1075 516 
Q 1375 441 1709 441 
Q 2250 441 2565 725 
Q 2881 1009 2881 1497 
Q 2881 1984 2565 2268 
Q 2250 2553 1709 2553 
Q 1456 2553 1204 2497 
Q 953 2441 691 2322 
L 691 4666 
z
" transform="scale(0.015625)"/>
       </defs>
       <use xlink:href="#DejaVuSans-28"/>
       <use xlink:href="#DejaVuSans-34" x="39.013672"/>
       <use xlink:href="#DejaVuSans-30" x="102.636719"/>
       <use xlink:href="#DejaVuSans-2c" x="166.259766"/>
       <use xlink:href="#DejaVuSans-35" x="198.046875"/>
       <use xlink:href="#DejaVuSans-30" x="261.669922"/>
       <use xlink:href="#DejaVuSans-29" x="325.292969"/>
      </g>
     </g>
    </g>
    <g id="xtick_24">
     <g id="line2d_29">
      <g>
       <use xlink:href="#m0e2b6d8ce9" x="304.732813" y="339.84" style="stroke: #000000; stroke-width: 0.8"/>
      </g>
     </g>
     <g id="text_16">
      <!-- (50,60) -->
      <g transform="translate(286.517188 354.438437) scale(0.1 -0.1)">
       <defs>
        <path id="DejaVuSans-36" d="M 2113 2584 
Q 1688 2584 1439 2293 
Q 1191 2003 1191 1497 
Q 1191 994 1439 701 
Q 1688 409 2113 409 
Q 2538 409 2786 701 
Q 3034 994 3034 1497 
Q 3034 2003 2786 2293 
Q 2538 2584 2113 2584 
z
M 3366 4563 
L 3366 3988 
Q 3128 4100 2886 4159 
Q 2644 4219 2406 4219 
Q 1781 4219 1451 3797 
Q 1122 3375 1075 2522 
Q 1259 2794 1537 2939 
Q 1816 3084 2150 3084 
Q 2853 3084 3261 2657 
Q 3669 2231 3669 1497 
Q 3669 778 3244 343 
Q 2819 -91 2113 -91 
Q 1303 -91 875 529 
Q 447 1150 447 2328 
Q 447 3434 972 4092 
Q 1497 4750 2381 4750 
Q 2619 4750 2861 4703 
Q 3103 4656 3366 4563 
z
" transform="scale(0.015625)"/>
       </defs>
       <use xlink:href="#DejaVuSans-28"/>
       <use xlink:href="#DejaVuSans-35" x="39.013672"/>
       <use xlink:href="#DejaVuSans-30" x="102.636719"/>
       <use xlink:href="#DejaVuSans-2c" x="166.259766"/>
       <use xlink:href="#DejaVuSans-36" x="198.046875"/>
       <use xlink:href="#DejaVuSans-30" x="261.669922"/>
       <use xlink:href="#DejaVuSans-29" x="325.292969"/>
      </g>
     </g>
    </g>
    <g id="xtick_25">
     <g id="line2d_30">
      <g>
       <use xlink:href="#m0e2b6d8ce9" x="351.232813" y="339.84" style="stroke: #000000; stroke-width: 0.8"/>
      </g>
     </g>
     <g id="text_17">
      <!-- (60,70) -->
      <g transform="translate(333.017188 354.438437) scale(0.1 -0.1)">
       <defs>
        <path id="DejaVuSans-37" d="M 525 4666 
L 3525 4666 
L 3525 4397 
L 1831 0 
L 1172 0 
L 2766 4134 
L 525 4134 
L 525 4666 
z
" transform="scale(0.015625)"/>
       </defs>
       <use xlink:href="#DejaVuSans-28"/>
       <use xlink:href="#DejaVuSans-36" x="39.013672"/>
       <use xlink:href="#DejaVuSans-30" x="102.636719"/>
       <use xlink:href="#DejaVuSans-2c" x="166.259766"/>
       <use xlink:href="#DejaVuSans-37" x="198.046875"/>
       <use xlink:href="#DejaVuSans-30" x="261.669922"/>
       <use xlink:href="#DejaVuSans-29" x="325.292969"/>
      </g>
     </g>
    </g>
    <g id="xtick_26">
     <g id="line2d_31">
      <g>
       <use xlink:href="#m0e2b6d8ce9" x="397.732813" y="339.84" style="stroke: #000000; stroke-width: 0.8"/>
      </g>
     </g>
     <g id="text_18">
      <!-- (70,80) -->
      <g transform="translate(379.517188 354.438437) scale(0.1 -0.1)">
       <defs>
        <path id="DejaVuSans-38" d="M 2034 2216 
Q 1584 2216 1326 1975 
Q 1069 1734 1069 1313 
Q 1069 891 1326 650 
Q 1584 409 2034 409 
Q 2484 409 2743 651 
Q 3003 894 3003 1313 
Q 3003 1734 2745 1975 
Q 2488 2216 2034 2216 
z
M 1403 2484 
Q 997 2584 770 2862 
Q 544 3141 544 3541 
Q 544 4100 942 4425 
Q 1341 4750 2034 4750 
Q 2731 4750 3128 4425 
Q 3525 4100 3525 3541 
Q 3525 3141 3298 2862 
Q 3072 2584 2669 2484 
Q 3125 2378 3379 2068 
Q 3634 1759 3634 1313 
Q 3634 634 3220 271 
Q 2806 -91 2034 -91 
Q 1263 -91 848 271 
Q 434 634 434 1313 
Q 434 1759 690 2068 
Q 947 2378 1403 2484 
z
M 1172 3481 
Q 1172 3119 1398 2916 
Q 1625 2713 2034 2713 
Q 2441 2713 2670 2916 
Q 2900 3119 2900 3481 
Q 2900 3844 2670 4047 
Q 2441 4250 2034 4250 
Q 1625 4250 1398 4047 
Q 1172 3844 1172 3481 
z
" transform="scale(0.015625)"/>
       </defs>
       <use xlink:href="#DejaVuSans-28"/>
       <use xlink:href="#DejaVuSans-37" x="39.013672"/>
       <use xlink:href="#DejaVuSans-30" x="102.636719"/>
       <use xlink:href="#DejaVuSans-2c" x="166.259766"/>
       <use xlink:href="#DejaVuSans-38" x="198.046875"/>
       <use xlink:href="#DejaVuSans-30" x="261.669922"/>
       <use xlink:href="#DejaVuSans-29" x="325.292969"/>
      </g>
     </g>
    </g>
    <g id="xtick_27">
     <g id="line2d_32">
      <g>
       <use xlink:href="#m0e2b6d8ce9" x="444.232813" y="339.84" style="stroke: #000000; stroke-width: 0.8"/>
      </g>
     </g>
     <g id="text_19">
      <!-- (80,90) -->
      <g transform="translate(426.017188 354.438437) scale(0.1 -0.1)">
       <defs>
        <path id="DejaVuSans-39" d="M 703 97 
L 703 672 
Q 941 559 1184 500 
Q 1428 441 1663 441 
Q 2288 441 2617 861 
Q 2947 1281 2994 2138 
Q 2813 1869 2534 1725 
Q 2256 1581 1919 1581 
Q 1219 1581 811 2004 
Q 403 2428 403 3163 
Q 403 3881 828 4315 
Q 1253 4750 1959 4750 
Q 2769 4750 3195 4129 
Q 3622 3509 3622 2328 
Q 3622 1225 3098 567 
Q 2575 -91 1691 -91 
Q 1453 -91 1209 -44 
Q 966 3 703 97 
z
M 1959 2075 
Q 2384 2075 2632 2365 
Q 2881 2656 2881 3163 
Q 2881 3666 2632 3958 
Q 2384 4250 1959 4250 
Q 1534 4250 1286 3958 
Q 1038 3666 1038 3163 
Q 1038 2656 1286 2365 
Q 1534 2075 1959 2075 
z
" transform="scale(0.015625)"/>
       </defs>
       <use xlink:href="#DejaVuSans-28"/>
       <use xlink:href="#DejaVuSans-38" x="39.013672"/>
       <use xlink:href="#DejaVuSans-30" x="102.636719"/>
       <use xlink:href="#DejaVuSans-2c" x="166.259766"/>
       <use xlink:href="#DejaVuSans-39" x="198.046875"/>
       <use xlink:href="#DejaVuSans-30" x="261.669922"/>
       <use xlink:href="#DejaVuSans-29" x="325.292969"/>
      </g>
     </g>
    </g>
    <g id="xtick_28">
     <g id="line2d_33">
      <g>
       <use xlink:href="#m0e2b6d8ce9" x="490.732813" y="339.84" style="stroke: #000000; stroke-width: 0.8"/>
      </g>
     </g>
     <g id="text_20">
      <!-- (90,80) -->
      <g transform="translate(472.517188 354.438437) scale(0.1 -0.1)">
       <use xlink:href="#DejaVuSans-28"/>
       <use xlink:href="#DejaVuSans-39" x="39.013672"/>
       <use xlink:href="#DejaVuSans-30" x="102.636719"/>
       <use xlink:href="#DejaVuSans-2c" x="166.259766"/>
       <use xlink:href="#DejaVuSans-38" x="198.046875"/>
       <use xlink:href="#DejaVuSans-30" x="261.669922"/>
       <use xlink:href="#DejaVuSans-29" x="325.292969"/>
      </g>
     </g>
    </g>
    <g id="xtick_29">
     <g id="line2d_34">
      <g>
       <use xlink:href="#m0e2b6d8ce9" x="537.232813" y="339.84" style="stroke: #000000; stroke-width: 0.8"/>
      </g>
     </g>
     <g id="text_21">
      <!-- (80,70) -->
      <g transform="translate(519.017187 354.438437) scale(0.1 -0.1)">
       <use xlink:href="#DejaVuSans-28"/>
       <use xlink:href="#DejaVuSans-38" x="39.013672"/>
       <use xlink:href="#DejaVuSans-30" x="102.636719"/>
       <use xlink:href="#DejaVuSans-2c" x="166.259766"/>
       <use xlink:href="#DejaVuSans-37" x="198.046875"/>
       <use xlink:href="#DejaVuSans-30" x="261.669922"/>
       <use xlink:href="#DejaVuSans-29" x="325.292969"/>
      </g>
     </g>
    </g>
    <g id="xtick_30">
     <g id="line2d_35">
      <g>
       <use xlink:href="#m0e2b6d8ce9" x="583.732813" y="339.84" style="stroke: #000000; stroke-width: 0.8"/>
      </g>
     </g>
     <g id="text_22">
      <!-- (70,60) -->
      <g transform="translate(565.517187 354.438437) scale(0.1 -0.1)">
       <use xlink:href="#DejaVuSans-28"/>
       <use xlink:href="#DejaVuSans-37" x="39.013672"/>
       <use xlink:href="#DejaVuSans-30" x="102.636719"/>
       <use xlink:href="#DejaVuSans-2c" x="166.259766"/>
       <use xlink:href="#DejaVuSans-36" x="198.046875"/>
       <use xlink:href="#DejaVuSans-30" x="261.669922"/>
       <use xlink:href="#DejaVuSans-29" x="325.292969"/>
      </g>
     </g>
    </g>
    <g id="xtick_31">
     <g id="line2d_36">
      <g>
       <use xlink:href="#m0e2b6d8ce9" x="630.232813" y="339.84" style="stroke: #000000; stroke-width: 0.8"/>
      </g>
     </g>
     <g id="text_23">
      <!-- (60,50) -->
      <g transform="translate(612.017187 354.438437) scale(0.1 -0.1)">
       <use xlink:href="#DejaVuSans-28"/>
       <use xlink:href="#DejaVuSans-36" x="39.013672"/>
       <use xlink:href="#DejaVuSans-30" x="102.636719"/>
       <use xlink:href="#DejaVuSans-2c" x="166.259766"/>
       <use xlink:href="#DejaVuSans-35" x="198.046875"/>
       <use xlink:href="#DejaVuSans-30" x="261.669922"/>
       <use xlink:href="#DejaVuSans-29" x="325.292969"/>
      </g>
     </g>
    </g>
    <g id="xtick_32">
     <g id="line2d_37">
      <g>
       <use xlink:href="#m0e2b6d8ce9" x="676.732813" y="339.84" style="stroke: #000000; stroke-width: 0.8"/>
      </g>
     </g>
     <g id="text_24">
      <!-- (50,40) -->
      <g transform="translate(658.517187 354.438437) scale(0.1 -0.1)">
       <use xlink:href="#DejaVuSans-28"/>
       <use xlink:href="#DejaVuSans-35" x="39.013672"/>
       <use xlink:href="#DejaVuSans-30" x="102.636719"/>
       <use xlink:href="#DejaVuSans-2c" x="166.259766"/>
       <use xlink:href="#DejaVuSans-34" x="198.046875"/>
       <use xlink:href="#DejaVuSans-30" x="261.669922"/>
       <use xlink:href="#DejaVuSans-29" x="325.292969"/>
      </g>
     </g>
    </g>
    <g id="xtick_33">
     <g id="line2d_38">
      <g>
       <use xlink:href="#m0e2b6d8ce9" x="723.232813" y="339.84" style="stroke: #000000; stroke-width: 0.8"/>
      </g>
     </g>
     <g id="text_25">
      <!-- (40,30) -->
      <g transform="translate(705.017187 354.438437) scale(0.1 -0.1)">
       <use xlink:href="#DejaVuSans-28"/>
       <use xlink:href="#DejaVuSans-34" x="39.013672"/>
       <use xlink:href="#DejaVuSans-30" x="102.636719"/>
       <use xlink:href="#DejaVuSans-2c" x="166.259766"/>
       <use xlink:href="#DejaVuSans-33" x="198.046875"/>
       <use xlink:href="#DejaVuSans-30" x="261.669922"/>
       <use xlink:href="#DejaVuSans-29" x="325.292969"/>
      </g>
     </g>
    </g>
    <g id="xtick_34">
     <g id="line2d_39">
      <g>
       <use xlink:href="#m0e2b6d8ce9" x="769.732813" y="339.84" style="stroke: #000000; stroke-width: 0.8"/>
      </g>
     </g>
     <g id="text_26">
      <!-- (30,20) -->
      <g transform="translate(751.517187 354.438437) scale(0.1 -0.1)">
       <use xlink:href="#DejaVuSans-28"/>
       <use xlink:href="#DejaVuSans-33" x="39.013672"/>
       <use xlink:href="#DejaVuSans-30" x="102.636719"/>
       <use xlink:href="#DejaVuSans-2c" x="166.259766"/>
       <use xlink:href="#DejaVuSans-32" x="198.046875"/>
       <use xlink:href="#DejaVuSans-30" x="261.669922"/>
       <use xlink:href="#DejaVuSans-29" x="325.292969"/>
      </g>
     </g>
    </g>
    <g id="xtick_35">
     <g id="line2d_40">
      <g>
       <use xlink:href="#m0e2b6d8ce9" x="816.232813" y="339.84" style="stroke: #000000; stroke-width: 0.8"/>
      </g>
     </g>
     <g id="text_27">
      <!-- (20,10) -->
      <g transform="translate(798.017187 354.438437) scale(0.1 -0.1)">
       <use xlink:href="#DejaVuSans-28"/>
       <use xlink:href="#DejaVuSans-32" x="39.013672"/>
       <use xlink:href="#DejaVuSans-30" x="102.636719"/>
       <use xlink:href="#DejaVuSans-2c" x="166.259766"/>
       <use xlink:href="#DejaVuSans-31" x="198.046875"/>
       <use xlink:href="#DejaVuSans-30" x="261.669922"/>
       <use xlink:href="#DejaVuSans-29" x="325.292969"/>
      </g>
     </g>
    </g>
    <g id="xtick_36">
     <g id="line2d_41">
      <g>
       <use xlink:href="#m0e2b6d8ce9" x="862.732813" y="339.84" style="stroke: #000000; stroke-width: 0.8"/>
      </g>
     </g>
     <g id="text_28">
      <!-- (10,0) -->
      <g transform="translate(847.698438 354.438437) scale(0.1 -0.1)">
       <use xlink:href="#DejaVuSans-28"/>
       <use xlink:href="#DejaVuSans-31" x="39.013672"/>
       <use xlink:href="#DejaVuSans-30" x="102.636719"/>
       <use xlink:href="#DejaVuSans-2c" x="166.259766"/>
       <use xlink:href="#DejaVuSans-30" x="198.046875"/>
       <use xlink:href="#DejaVuSans-29" x="261.669922"/>
      </g>
     </g>
    </g>
    <g id="text_29">
     <!-- Elevation angle intervals (°) -->
     <g transform="translate(397.548438 368.116562) scale(0.1 -0.1)">
      <defs>
       <path id="DejaVuSans-45" d="M 628 4666 
L 3578 4666 
L 3578 4134 
L 1259 4134 
L 1259 2753 
L 3481 2753 
L 3481 2222 
L 1259 2222 
L 1259 531 
L 3634 531 
L 3634 0 
L 628 0 
L 628 4666 
z
" transform="scale(0.015625)"/>
       <path id="DejaVuSans-76" d="M 191 3500 
L 800 3500 
L 1894 563 
L 2988 3500 
L 3597 3500 
L 2284 0 
L 1503 0 
L 191 3500 
z
" transform="scale(0.015625)"/>
       <path id="DejaVuSans-67" d="M 2906 1791 
Q 2906 2416 2648 2759 
Q 2391 3103 1925 3103 
Q 1463 3103 1205 2759 
Q 947 2416 947 1791 
Q 947 1169 1205 825 
Q 1463 481 1925 481 
Q 2391 481 2648 825 
Q 2906 1169 2906 1791 
z
M 3481 434 
Q 3481 -459 3084 -895 
Q 2688 -1331 1869 -1331 
Q 1566 -1331 1297 -1286 
Q 1028 -1241 775 -1147 
L 775 -588 
Q 1028 -725 1275 -790 
Q 1522 -856 1778 -856 
Q 2344 -856 2625 -561 
Q 2906 -266 2906 331 
L 2906 616 
Q 2728 306 2450 153 
Q 2172 0 1784 0 
Q 1141 0 747 490 
Q 353 981 353 1791 
Q 353 2603 747 3093 
Q 1141 3584 1784 3584 
Q 2172 3584 2450 3431 
Q 2728 3278 2906 2969 
L 2906 3500 
L 3481 3500 
L 3481 434 
z
" transform="scale(0.015625)"/>
       <path id="DejaVuSans-b0" d="M 1600 4347 
Q 1350 4347 1178 4173 
Q 1006 4000 1006 3750 
Q 1006 3503 1178 3333 
Q 1350 3163 1600 3163 
Q 1850 3163 2022 3333 
Q 2194 3503 2194 3750 
Q 2194 3997 2020 4172 
Q 1847 4347 1600 4347 
z
M 1600 4750 
Q 1800 4750 1984 4673 
Q 2169 4597 2303 4453 
Q 2447 4313 2519 4134 
Q 2591 3956 2591 3750 
Q 2591 3338 2302 3052 
Q 2013 2766 1594 2766 
Q 1172 2766 890 3047 
Q 609 3328 609 3750 
Q 609 4169 896 4459 
Q 1184 4750 1600 4750 
z
" transform="scale(0.015625)"/>
      </defs>
      <use xlink:href="#DejaVuSans-45"/>
      <use xlink:href="#DejaVuSans-6c" x="63.183594"/>
      <use xlink:href="#DejaVuSans-65" x="90.966797"/>
      <use xlink:href="#DejaVuSans-76" x="152.490234"/>
      <use xlink:href="#DejaVuSans-61" x="211.669922"/>
      <use xlink:href="#DejaVuSans-74" x="272.949219"/>
      <use xlink:href="#DejaVuSans-69" x="312.158203"/>
      <use xlink:href="#DejaVuSans-6f" x="339.941406"/>
      <use xlink:href="#DejaVuSans-6e" x="401.123047"/>
      <use xlink:href="#DejaVuSans-20" x="464.501953"/>
      <use xlink:href="#DejaVuSans-61" x="496.289062"/>
      <use xlink:href="#DejaVuSans-6e" x="557.568359"/>
      <use xlink:href="#DejaVuSans-67" x="620.947266"/>
      <use xlink:href="#DejaVuSans-6c" x="684.423828"/>
      <use xlink:href="#DejaVuSans-65" x="712.207031"/>
      <use xlink:href="#DejaVuSans-20" x="773.730469"/>
      <use xlink:href="#DejaVuSans-69" x="805.517578"/>
      <use xlink:href="#DejaVuSans-6e" x="833.300781"/>
      <use xlink:href="#DejaVuSans-74" x="896.679688"/>
      <use xlink:href="#DejaVuSans-65" x="935.888672"/>
      <use xlink:href="#DejaVuSans-72" x="997.412109"/>
      <use xlink:href="#DejaVuSans-76" x="1038.525391"/>
      <use xlink:href="#DejaVuSans-61" x="1097.705078"/>
      <use xlink:href="#DejaVuSans-6c" x="1158.984375"/>
      <use xlink:href="#DejaVuSans-73" x="1186.767578"/>
      <use xlink:href="#DejaVuSans-20" x="1238.867188"/>
      <use xlink:href="#DejaVuSans-28" x="1270.654297"/>
      <use xlink:href="#DejaVuSans-b0" x="1309.667969"/>
      <use xlink:href="#DejaVuSans-29" x="1359.667969"/>
     </g>
    </g>
   </g>
   <g id="matplotlib.axis_4">
    <g id="ytick_6">
     <g id="line2d_42">
      <g>
       <use xlink:href="#me08c43d72f" x="48.982813" y="338.648613" style="stroke: #000000; stroke-width: 0.8"/>
      </g>
     </g>
     <g id="text_30">
      <!-- −25 -->
      <g transform="translate(20.878125 342.447832) scale(0.1 -0.1)">
       <defs>
        <path id="DejaVuSans-2212" d="M 678 2272 
L 4684 2272 
L 4684 1741 
L 678 1741 
L 678 2272 
z
" transform="scale(0.015625)"/>
       </defs>
       <use xlink:href="#DejaVuSans-2212"/>
       <use xlink:href="#DejaVuSans-32" x="83.789062"/>
       <use xlink:href="#DejaVuSans-35" x="147.412109"/>
      </g>
     </g>
    </g>
    <g id="ytick_7">
     <g id="line2d_43">
      <g>
       <use xlink:href="#me08c43d72f" x="48.982813" y="316.158887" style="stroke: #000000; stroke-width: 0.8"/>
      </g>
     </g>
     <g id="text_31">
      <!-- 0 -->
      <g transform="translate(35.620313 319.958106) scale(0.1 -0.1)">
       <use xlink:href="#DejaVuSans-30"/>
      </g>
     </g>
    </g>
    <g id="ytick_8">
     <g id="line2d_44">
      <g>
       <use xlink:href="#me08c43d72f" x="48.982813" y="293.669162" style="stroke: #000000; stroke-width: 0.8"/>
      </g>
     </g>
     <g id="text_32">
      <!-- 25 -->
      <g transform="translate(29.257813 297.468381) scale(0.1 -0.1)">
       <use xlink:href="#DejaVuSans-32"/>
       <use xlink:href="#DejaVuSans-35" x="63.623047"/>
      </g>
     </g>
    </g>
    <g id="ytick_9">
     <g id="line2d_45">
      <g>
       <use xlink:href="#me08c43d72f" x="48.982813" y="271.179436" style="stroke: #000000; stroke-width: 0.8"/>
      </g>
     </g>
     <g id="text_33">
      <!-- 50 -->
      <g transform="translate(29.257813 274.978655) scale(0.1 -0.1)">
       <use xlink:href="#DejaVuSans-35"/>
       <use xlink:href="#DejaVuSans-30" x="63.623047"/>
      </g>
     </g>
    </g>
    <g id="ytick_10">
     <g id="line2d_46">
      <g>
       <use xlink:href="#me08c43d72f" x="48.982813" y="248.68971" style="stroke: #000000; stroke-width: 0.8"/>
      </g>
     </g>
     <g id="text_34">
      <!-- 75 -->
      <g transform="translate(29.257813 252.488929) scale(0.1 -0.1)">
       <use xlink:href="#DejaVuSans-37"/>
       <use xlink:href="#DejaVuSans-35" x="63.623047"/>
      </g>
     </g>
    </g>
    <g id="ytick_11">
     <g id="line2d_47">
      <g>
       <use xlink:href="#me08c43d72f" x="48.982813" y="226.199985" style="stroke: #000000; stroke-width: 0.8"/>
      </g>
     </g>
     <g id="text_35">
      <!-- 100 -->
      <g transform="translate(22.895313 229.999203) scale(0.1 -0.1)">
       <use xlink:href="#DejaVuSans-31"/>
       <use xlink:href="#DejaVuSans-30" x="63.623047"/>
       <use xlink:href="#DejaVuSans-30" x="127.246094"/>
      </g>
     </g>
    </g>
    <g id="ytick_12">
     <g id="line2d_48">
      <g>
       <use xlink:href="#me08c43d72f" x="48.982813" y="203.710259" style="stroke: #000000; stroke-width: 0.8"/>
      </g>
     </g>
     <g id="text_36">
      <!-- 125 -->
      <g transform="translate(22.895313 207.509478) scale(0.1 -0.1)">
       <use xlink:href="#DejaVuSans-31"/>
       <use xlink:href="#DejaVuSans-32" x="63.623047"/>
       <use xlink:href="#DejaVuSans-35" x="127.246094"/>
      </g>
     </g>
    </g>
    <g id="text_37">
     <!-- Mbe (W/m²) -->
     <g transform="translate(14.798438 293.798594) rotate(-90) scale(0.1 -0.1)">
      <defs>
       <path id="DejaVuSans-62" d="M 3116 1747 
Q 3116 2381 2855 2742 
Q 2594 3103 2138 3103 
Q 1681 3103 1420 2742 
Q 1159 2381 1159 1747 
Q 1159 1113 1420 752 
Q 1681 391 2138 391 
Q 2594 391 2855 752 
Q 3116 1113 3116 1747 
z
M 1159 2969 
Q 1341 3281 1617 3432 
Q 1894 3584 2278 3584 
Q 2916 3584 3314 3078 
Q 3713 2572 3713 1747 
Q 3713 922 3314 415 
Q 2916 -91 2278 -91 
Q 1894 -91 1617 61 
Q 1341 213 1159 525 
L 1159 0 
L 581 0 
L 581 4863 
L 1159 4863 
L 1159 2969 
z
" transform="scale(0.015625)"/>
       <path id="DejaVuSans-57" d="M 213 4666 
L 850 4666 
L 1831 722 
L 2809 4666 
L 3519 4666 
L 4500 722 
L 5478 4666 
L 6119 4666 
L 4947 0 
L 4153 0 
L 3169 4050 
L 2175 0 
L 1381 0 
L 213 4666 
z
" transform="scale(0.015625)"/>
      </defs>
      <use xlink:href="#DejaVuSans-4d"/>
      <use xlink:href="#DejaVuSans-62" x="86.279297"/>
      <use xlink:href="#DejaVuSans-65" x="149.755859"/>
      <use xlink:href="#DejaVuSans-20" x="211.279297"/>
      <use xlink:href="#DejaVuSans-28" x="243.066406"/>
      <use xlink:href="#DejaVuSans-57" x="282.080078"/>
      <use xlink:href="#DejaVuSans-2f" x="380.957031"/>
      <use xlink:href="#DejaVuSans-6d" x="414.648438"/>
      <use xlink:href="#DejaVuSans-b2" x="512.060547"/>
      <use xlink:href="#DejaVuSans-29" x="552.148438"/>
     </g>
    </g>
   </g>
   <g id="patch_120">
    <path d="M 48.982813 339.84 
L 48.982813 188.64 
" style="fill: none; stroke: #000000; stroke-width: 0.8; stroke-linejoin: miter; stroke-linecap: square"/>
   </g>
   <g id="patch_121">
    <path d="M 885.982813 339.84 
L 885.982813 188.64 
" style="fill: none; stroke: #000000; stroke-width: 0.8; stroke-linejoin: miter; stroke-linecap: square"/>
   </g>
   <g id="patch_122">
    <path d="M 48.982813 339.84 
L 885.982813 339.84 
" style="fill: none; stroke: #000000; stroke-width: 0.8; stroke-linejoin: miter; stroke-linecap: square"/>
   </g>
   <g id="patch_123">
    <path d="M 48.982813 188.64 
L 885.982813 188.64 
" style="fill: none; stroke: #000000; stroke-width: 0.8; stroke-linejoin: miter; stroke-linecap: square"/>
   </g>
  </g>
 </g>
 <defs>
  <clipPath id="p892aabd8ce">
   <rect x="48.982813" y="7.2" width="837" height="151.2"/>
  </clipPath>
  <clipPath id="p2650a6c3ee">
   <rect x="48.982813" y="188.64" width="837" height="151.2"/>
  </clipPath>
 </defs>
</svg>
